name E:\3-PhD\Data\MocapData\ElaboratedData\009\pre\dynamicElaborations\Run_baseline1\Run_baseline1.mot																																				
datacolumns 37																																				
datarows 79																																				
range 0.3715 0.4105																																				
endheader																																				
																																				
time	    ground_force1_vx	    ground_force1_vy	    ground_force1_vz	    ground_force1_px	    ground_force1_py	    ground_force1_pz	    ground_force2_vx	    ground_force2_vy	    ground_force2_vz	    ground_force2_px	    ground_force2_py	    ground_force2_pz	    ground_force3_vx	    ground_force3_vy	    ground_force3_vz	    ground_force3_px	    ground_force3_py	    ground_force3_pz	    ground_force4_vx	    ground_force4_vy	    ground_force4_vz	    ground_force4_px	    ground_force4_py	    ground_force4_pz	    ground_torque1_x	    ground_torque1_y	    ground_torque1_z	    ground_torque2_x	    ground_torque2_y	    ground_torque2_z	    ground_torque3_x	    ground_torque3_y	    ground_torque3_z	    ground_torque4_x	    ground_torque4_y	    ground_torque4_z
0.3715	0	0	0	0	0	0	0	0	0	0	0	0	-225.4583039	1756.799096	-29.79644894	-0.45251568	0	0.31958687	0	0	0	0	0	0	0	0	0	0	0	0	0	2.64125052	0	0	0	0
0.372	0	0	0	0	0	0	0	0	0	0	0	0	-222.9847643	1760.375589	-31.25045659	-0.4518686	0	0.31961448	0	0	0	0	0	0	0	0	0	0	0	0	0	2.47831275	0	0	0	0
0.3725	0	0	0	0	0	0	0	0	0	0	0	0	-220.4072707	1763.86519	-32.66598337	-0.45122765	0	0.3196408	0	0	0	0	0	0	0	0	0	0	0	0	0	2.31620585	0	0	0	0
0.373	0	0	0	0	0	0	0	0	0	0	0	0	-217.7266711	1767.269593	-34.041594	-0.45059293	0	0.31966578	0	0	0	0	0	0	0	0	0	0	0	0	0	2.15523664	0	0	0	0
0.3735	0	0	0	0	0	0	0	0	0	0	0	0	-214.9437886	1770.590248	-35.37598273	-0.44996458	0	0.31968937	0	0	0	0	0	0	0	0	0	0	0	0	0	1.99570026	0	0	0	0
0.374	0	0	0	0	0	0	0	0	0	0	0	0	-212.0594189	1773.828359	-36.66796615	-0.4493427	0	0.31971152	0	0	0	0	0	0	0	0	0	0	0	0	0	1.83788108	0	0	0	0
0.3745	0	0	0	0	0	0	0	0	0	0	0	0	-209.0743294	1776.984899	-37.9164755	-0.4487274	0	0.31973219	0	0	0	0	0	0	0	0	0	0	0	0	0	1.68205311	0	0	0	0
0.375	0	0	0	0	0	0	0	0	0	0	0	0	-205.9892637	1780.06061	-39.12055094	-0.44811876	0	0.31975132	0	0	0	0	0	0	0	0	0	0	0	0	0	1.52847896	0	0	0	0
0.3755	0	0	0	0	0	0	0	0	0	0	0	0	-202.8049486	1783.056018	-40.27933668	-0.44751688	0	0.3197689	0	0	0	0	0	0	0	0	0	0	0	0	0	1.37740867	0	0	0	0
0.376	0	0	0	0	0	0	0	0	0	0	0	0	-199.5220986	1785.971439	-41.39207403	-0.44692183	0	0.31978487	0	0	0	0	0	0	0	0	0	0	0	0	0	1.22908002	0	0	0	0
0.3765	0	0	0	0	0	0	0	0	0	0	0	0	-196.1414181	1788.806982	-42.45809178	-0.44633368	0	0.31979922	0	0	0	0	0	0	0	0	0	0	0	0	0	1.08371973	0	0	0	0
0.377	0	0	0	0	0	0	0	0	0	0	0	0	-192.6636067	1791.562558	-43.47679702	-0.44575248	0	0.31981192	0	0	0	0	0	0	0	0	0	0	0	0	0	0.94154372	0	0	0	0
0.3775	0	0	0	0	0	0	0	0	0	0	0	0	-189.0893683	1794.237889	-44.44766861	-0.44517829	0	0.31982294	0	0	0	0	0	0	0	0	0	0	0	0	0	0.80275591	0	0	0	0
0.378	0	0	0	0	0	0	0	0	0	0	0	0	-185.4194224	1796.832518	-45.37025233	-0.44461115	0	0.31983227	0	0	0	0	0	0	0	0	0	0	0	0	0	0.66754735	0	0	0	0
0.3785	0	0	0	0	0	0	0	0	0	0	0	0	-181.6545106	1799.345816	-46.24415508	-0.44405109	0	0.31983988	0	0	0	0	0	0	0	0	0	0	0	0	0	0.53609679	0	0	0	0
0.379	0	0	0	0	0	0	0	0	0	0	0	0	-177.7954025	1801.776993	-47.06903757	-0.44349813	0	0.31984576	0	0	0	0	0	0	0	0	0	0	0	0	0	0.40857205	0	0	0	0
0.3795	0	0	0	0	0	0	0	0	0	0	0	0	-173.8429034	1804.125107	-47.84460828	-0.4429523	0	0.3198499	0	0	0	0	0	0	0	0	0	0	0	0	0	0.28513001	0	0	0	0
0.38	0	0	0	0	0	0	0	0	0	0	0	0	-169.7978651	1806.389079	-48.57062094	-0.44241359	0	0.31985229	0	0	0	0	0	0	0	0	0	0	0	0	0	0.1659155	0	0	0	0
0.3805	0	0	0	0	0	0	0	0	0	0	0	0	-165.6611947	1808.5677	-49.24687415	-0.44188201	0	0.31985291	0	0	0	0	0	0	0	0	0	0	0	0	0	0.05106085	0	0	0	0
0.381	0	0	0	0	0	0	0	0	0	0	0	0	-161.4338613	1810.659642	-49.87321031	-0.44135756	0	0.31985177	0	0	0	0	0	0	0	0	0	0	0	0	0	-0.05931325	0	0	0	0
0.3815	0	0	0	0	0	0	0	0	0	0	0	0	-157.1169008	1812.663465	-50.44951356	-0.4408402	0	0.31984884	0	0	0	0	0	0	0	0	0	0	0	0	0	-0.16509665	0	0	0	0
0.382	0	0	0	0	0	0	0	0	0	0	0	0	-152.7114222	1814.577627	-50.97570896	-0.44032993	0	0.31984415	0	0	0	0	0	0	0	0	0	0	0	0	0	-0.26619015	0	0	0	0
0.3825	0	0	0	0	0	0	0	0	0	0	0	0	-148.2186156	1816.400496	-51.4517645	-0.43982671	0	0.31983767	0	0	0	0	0	0	0	0	0	0	0	0	0	-0.3625067	0	0	0	0
0.383	0	0	0	0	0	0	0	0	0	0	0	0	-143.6397583	1818.130356	-51.87769415	-0.4393305	0	0.31982941	0	0	0	0	0	0	0	0	0	0	0	0	0	-0.45397166	0	0	0	0
0.3835	0	0	0	0	0	0	0	0	0	0	0	0	-138.9762182	1819.765416	-52.25355963	-0.43884125	0	0.31981938	0	0	0	0	0	0	0	0	0	0	0	0	0	-0.54052176	0	0	0	0
0.384	0	0	0	0	0	0	0	0	0	0	0	0	-134.2294557	1821.30382	-52.5794706	-0.43835892	0	0.31980757	0	0	0	0	0	0	0	0	0	0	0	0	0	-0.62210437	0	0	0	0
0.3845	0	0	0	0	0	0	0	0	0	0	0	0	-129.401027	1822.743652	-52.85558594	-0.43788344	0	0.319794	0	0	0	0	0	0	0	0	0	0	0	0	0	-0.69867806	0	0	0	0
0.385	0	0	0	0	0	0	0	0	0	0	0	0	-124.492589	1824.082949	-53.08211699	-0.43741476	0	0.31977866	0	0	0	0	0	0	0	0	0	0	0	0	0	-0.77021358	0	0	0	0
0.3855	0	0	0	0	0	0	0	0	0	0	0	0	-119.5059033	1825.319699	-53.25933105	-0.43695279	0	0.31976158	0	0	0	0	0	0	0	0	0	0	0	0	0	-0.83669372	0	0	0	0
0.386	0	0	0	0	0	0	0	0	0	0	0	0	-114.4428364	1826.451859	-53.38755284	-0.43649747	0	0.31974275	0	0	0	0	0	0	0	0	0	0	0	0	0	-0.89811207	0	0	0	0
0.3865	0	0	0	0	0	0	0	0	0	0	0	0	-109.3053591	1827.477357	-53.46716478	-0.43604872	0	0.3197222	0	0	0	0	0	0	0	0	0	0	0	0	0	-0.95447248	0	0	0	0
0.387	0	0	0	0	0	0	0	0	0	0	0	0	-104.0955459	1828.394101	-53.49860789	-0.43560644	0	0.31969994	0	0	0	0	0	0	0	0	0	0	0	0	0	-1.00578981	0	0	0	0
0.3875	0	0	0	0	0	0	0	0	0	0	0	0	-98.81557691	1829.199985	-53.48238422	-0.43517056	0	0.31967597	0	0	0	0	0	0	0	0	0	0	0	0	0	-1.05209059	0	0	0	0
0.388	0	0	0	0	0	0	0	0	0	0	0	0	-93.46773925	1829.892895	-53.4190588	-0.43474097	0	0.31965032	0	0	0	0	0	0	0	0	0	0	0	0	0	-1.09341244	0	0	0	0
0.3885	0	0	0	0	0	0	0	0	0	0	0	0	-88.05442493	1830.47071	-53.30925996	-0.43431757	0	0.31962301	0	0	0	0	0	0	0	0	0	0	0	0	0	-1.12980283	0	0	0	0
0.389	0	0	0	0	0	0	0	0	0	0	0	0	-82.57812652	1830.931308	-53.15367832	-0.43390027	0	0.31959406	0	0	0	0	0	0	0	0	0	0	0	0	0	-1.16131885	0	0	0	0
0.3895	0	0	0	0	0	0	0	0	0	0	0	0	-77.04143399	1831.272566	-52.9530662	-0.43348895	0	0.31956348	0	0	0	0	0	0	0	0	0	0	0	0	0	-1.188028	0	0	0	0
0.39	0	0	0	0	0	0	0	0	0	0	0	0	-71.4470339	1831.492368	-52.70823781	-0.43308352	0	0.3195313	0	0	0	0	0	0	0	0	0	0	0	0	0	-1.21000832	0	0	0	0
0.3905	0	0	0	0	0	0	0	0	0	0	0	0	-65.79770762	1831.588602	-52.42006916	-0.43268385	0	0.31949754	0	0	0	0	0	0	0	0	0	0	0	0	0	-1.22734735	0	0	0	0
0.391	0	0	0	0	0	0	0	0	0	0	0	0	-60.0963253	1831.55917	-52.0894966	-0.43228982	0	0.31946223	0	0	0	0	0	0	0	0	0	0	0	0	0	-1.24014101	0	0	0	0
0.3915	0	0	0	0	0	0	0	0	0	0	0	0	-54.34583717	1831.401982	-51.71751453	-0.43190133	0	0.31942539	0	0	0	0	0	0	0	0	0	0	0	0	0	-1.24849343	0	0	0	0
0.392	0	0	0	0	0	0	0	0	0	0	0	0	-48.54926649	1831.114964	-51.30517329	-0.43151825	0	0.31938706	0	0	0	0	0	0	0	0	0	0	0	0	0	-1.25251732	0	0	0	0
0.3925	0	0	0	0	0	0	0	0	0	0	0	0	-42.70970533	1830.696058	-50.85357762	-0.43114045	0	0.31934726	0	0	0	0	0	0	0	0	0	0	0	0	0	-1.25233365	0	0	0	0
0.393	0	0	0	0	0	0	0	0	0	0	0	0	-36.83030928	1830.143218	-50.36388454	-0.43076782	0	0.31930602	0	0	0	0	0	0	0	0	0	0	0	0	0	-1.24807027	0	0	0	0
0.3935	0	0	0	0	0	0	0	0	0	0	0	0	-30.91428832	1829.45442	-49.83730014	-0.43040022	0	0.31926337	0	0	0	0	0	0	0	0	0	0	0	0	0	-1.23986098	0	0	0	0
0.394	0	0	0	0	0	0	0	0	0	0	0	0	-24.96489528	1828.627654	-49.27507572	-0.43003754	0	0.31921936	0	0	0	0	0	0	0	0	0	0	0	0	0	-1.22784557	0	0	0	0
0.3945	0	0	0	0	0	0	0	0	0	0	0	0	-18.98541636	1827.660925	-48.67850409	-0.42967963	0	0.319174	0	0	0	0	0	0	0	0	0	0	0	0	0	-1.21217019	0	0	0	0
0.395	0	0	0	0	0	0	0	0	0	0	0	0	-12.97916458	1826.552254	-48.04891626	-0.42932637	0	0.31912735	0	0	0	0	0	0	0	0	0	0	0	0	0	-1.19298662	0	0	0	0
0.3955	0	0	0	0	0	0	0	0	0	0	0	0	-6.94947302	1825.29968	-47.3876779	-0.42897763	0	0.31907942	0	0	0	0	0	0	0	0	0	0	0	0	0	-1.17045083	0	0	0	0
0.396	0	0	0	0	0	0	0	0	0	0	0	0	-0.89968507	1823.901256	-46.69618512	-0.42863328	0	0.31903027	0	0	0	0	0	0	0	0	0	0	0	0	0	-1.14472207	0	0	0	0
0.3965	0	0	0	0	0	0	0	0	0	0	0	0	5.16685671	1822.355054	-45.97586001	-0.42829319	0	0.31897992	0	0	0	0	0	0	0	0	0	0	0	0	0	-1.11596304	0	0	0	0
0.397	0	0	0	0	0	0	0	0	0	0	0	0	11.2468194	1820.659165	-45.22814618	-0.42795722	0	0.31892842	0	0	0	0	0	0	0	0	0	0	0	0	0	-1.08433999	0	0	0	0
0.3975	0	0	0	0	0	0	0	0	0	0	0	0	17.33688518	1818.811695	-44.45450456	-0.42762525	0	0.31887581	0	0	0	0	0	0	0	0	0	0	0	0	0	-1.05002178	0	0	0	0
0.398	0	0	0	0	0	0	0	0	0	0	0	0	23.43375646	1816.810769	-43.65640934	-0.42729715	0	0.31882212	0	0	0	0	0	0	0	0	0	0	0	0	0	-1.01317855	0	0	0	0
0.3985	0	0	0	0	0	0	0	0	0	0	0	0	29.53416333	1814.654532	-42.83534411	-0.42697278	0	0.31876739	0	0	0	0	0	0	0	0	0	0	0	0	0	-0.97398117	0	0	0	0
0.399	0	0	0	0	0	0	0	0	0	0	0	0	35.63487188	1812.341149	-41.99279809	-0.42665203	0	0.31871166	0	0	0	0	0	0	0	0	0	0	0	0	0	-0.93260158	0	0	0	0
0.3995	0	0	0	0	0	0	0	0	0	0	0	0	41.73268983	1809.868808	-41.13026212	-0.42633475	0	0.31865498	0	0	0	0	0	0	0	0	0	0	0	0	0	-0.88921274	0	0	0	0
0.4	0	0	0	0	0	0	0	0	0	0	0	0	47.82446811	1807.235721	-40.24922505	-0.42602083	0	0.31859739	0	0	0	0	0	0	0	0	0	0	0	0	0	-0.84398756	0	0	0	0
0.4005	0	0	0	0	0	0	0	0	0	0	0	0	53.90710137	1804.440126	-39.35117079	-0.42571014	0	0.31853892	0	0	0	0	0	0	0	0	0	0	0	0	0	-0.79709772	0	0	0	0
0.401	0	0	0	0	0	0	0	0	0	0	0	0	59.97753068	1801.480291	-38.43757612	-0.42540255	0	0.31847961	0	0	0	0	0	0	0	0	0	0	0	0	0	-0.74871345	0	0	0	0
0.4015	0	0	0	0	0	0	0	0	0	0	0	0	66.03274717	1798.354513	-37.50990853	-0.42509795	0	0.31841951	0	0	0	0	0	0	0	0	0	0	0	0	0	-0.69900387	0	0	0	0
0.402	0	0	0	0	0	0	0	0	0	0	0	0	72.06979314	1795.061126	-36.56962377	-0.42479619	0	0.31835866	0	0	0	0	0	0	0	0	0	0	0	0	0	-0.64813679	0	0	0	0
0.4025	0	0	0	0	0	0	0	0	0	0	0	0	78.08575928	1791.598506	-35.61816362	-0.42449717	0	0.31829709	0	0	0	0	0	0	0	0	0	0	0	0	0	-0.59627771	0	0	0	0
0.403	0	0	0	0	0	0	0	0	0	0	0	0	84.07778108	1787.965071	-34.65695445	-0.42420076	0	0.31823485	0	0	0	0	0	0	0	0	0	0	0	0	0	-0.54358905	0	0	0	0
0.4035	0	0	0	0	0	0	0	0	0	0	0	0	90.04303705	1784.159291	-33.68740627	-0.42390685	0	0.31817198	0	0	0	0	0	0	0	0	0	0	0	0	0	-0.49023024	0	0	0	0
0.404	0	0	0	0	0	0	0	0	0	0	0	0	95.97874792	1780.17969	-32.71091149	-0.4236153	0	0.31810851	0	0	0	0	0	0	0	0	0	0	0	0	0	-0.43635798	0	0	0	0
0.4045	0	0	0	0	0	0	0	0	0	0	0	0	101.8821735	1776.024848	-31.7288433	-0.42332601	0	0.31804449	0	0	0	0	0	0	0	0	0	0	0	0	0	-0.38212584	0	0	0	0
0.405	0	0	0	0	0	0	0	0	0	0	0	0	107.7506065	1771.693408	-30.74255441	-0.42303886	0	0.31797995	0	0	0	0	0	0	0	0	0	0	0	0	0	-0.32768342	0	0	0	0
0.4055	0	0	0	0	0	0	0	0	0	0	0	0	113.5813672	1767.184076	-29.75337659	-0.42275373	0	0.31791494	0	0	0	0	0	0	0	0	0	0	0	0	0	-0.27317604	0	0	0	0
0.406	0	0	0	0	0	0	0	0	0	0	0	0	119.3717987	1762.495631	-28.76262026	-0.42247049	0	0.31784949	0	0	0	0	0	0	0	0	0	0	0	0	0	-0.21874519	0	0	0	0
0.4065	0	0	0	0	0	0	0	0	0	0	0	0	125.1192648	1757.626928	-27.77157344	-0.42218905	0	0.31778364	0	0	0	0	0	0	0	0	0	0	0	0	0	-0.16452872	0	0	0	0
0.407	0	0	0	0	0	0	0	0	0	0	0	0	130.8211451	1752.576901	-26.78150007	-0.42190928	0	0.31771743	0	0	0	0	0	0	0	0	0	0	0	0	0	-0.11066035	0	0	0	0
0.4075	0	0	0	0	0	0	0	0	0	0	0	0	136.4748292	1747.344575	-25.7936383	-0.42163107	0	0.3176509	0	0	0	0	0	0	0	0	0	0	0	0	0	-0.05726887	0	0	0	0
0.408	0	0	0	0	0	0	0	0	0	0	0	0	142.0777122	1741.929059	-24.80919957	-0.4213543	0	0.31758408	0	0	0	0	0	0	0	0	0	0	0	0	0	-0.00447805	0	0	0	0
0.4085	0	0	0	0	0	0	0	0	0	0	0	0	147.6271906	1736.32956	-23.82936808	-0.42107887	0	0.31751701	0	0	0	0	0	0	0	0	0	0	0	0	0	0.04759286	0	0	0	0
0.409	0	0	0	0	0	0	0	0	0	0	0	0	153.1206605	1730.54538	-22.8552997	-0.42080465	0	0.31744973	0	0	0	0	0	0	0	0	0	0	0	0	0	0.09882908	0	0	0	0
0.4095	0	0	0	0	0	0	0	0	0	0	0	0	158.5555147	1724.575924	-21.88812022	-0.42053153	0	0.31738228	0	0	0	0	0	0	0	0	0	0	0	0	0	0.14912077	0	0	0	0
0.41	0	0	0	0	0	0	0	0	0	0	0	0	163.9291413	1718.420702	-20.9289237	-0.42025941	0	0.31731469	0	0	0	0	0	0	0	0	0	0	0	0	0	0.19836361	0	0	0	0
0.4105	0	0	0	0	0	0	0	0	0	0	0	0	169.2389217	1712.079334	-19.97877143	-0.41998817	0	0.31724699	0	0	0	0	0	0	0	0	0	0	0	0	0	0.2464586	0	0	0	0
